<svg width="130" height="20" viewBox="0 0 130 20" fill="none" xmlns="http://www.w3.org/2000/svg">
<path d="M13.1051 1.54545H16.7955L14.9205 12.8807C14.7102 14.1534 14.2244 15.267 13.4631 16.2216C12.7017 17.1761 11.733 17.9205 10.5568 18.4545C9.38068 18.983 8.06818 19.2472 6.61932 19.2472C5.17045 19.2472 3.94886 18.983 2.95455 18.4545C1.96023 17.9205 1.24148 17.1761 0.798295 16.2216C0.355114 15.267 0.238636 14.1534 0.448864 12.8807L2.32386 1.54545H6.0142L4.18182 12.5653C4.07955 13.2301 4.13068 13.821 4.33523 14.3381C4.54545 14.8551 4.89205 15.2614 5.375 15.5568C5.85795 15.8523 6.45455 16 7.16477 16C7.88068 16 8.52841 15.8523 9.10795 15.5568C9.69318 15.2614 10.1733 14.8551 10.5483 14.3381C10.929 13.821 11.1705 13.2301 11.2727 12.5653L13.1051 1.54545ZM21.7749 11.4318L20.5135 19H16.8913L19.0732 5.90909H22.5249L22.1499 8.21875H22.2947C22.7095 7.4517 23.2947 6.84659 24.0504 6.40341C24.8118 5.96023 25.6783 5.73864 26.6499 5.73864C27.5589 5.73864 28.3175 5.9375 28.9254 6.33523C29.5391 6.73295 29.9709 7.2983 30.2209 8.03125C30.4766 8.7642 30.5192 9.64205 30.3487 10.6648L28.951 19H25.3203L26.6072 11.3125C26.7379 10.5114 26.6357 9.88636 26.3004 9.4375C25.9709 8.98295 25.4396 8.75568 24.7067 8.75568C24.218 8.75568 23.7692 8.8608 23.3601 9.07102C22.951 9.28125 22.6072 9.58807 22.3288 9.99148C22.0561 10.3892 21.8714 10.8693 21.7749 11.4318ZM40.9403 5.90909L40.4886 8.63636H32.5966L33.0568 5.90909H40.9403ZM35.358 2.77273H38.9886L36.9602 14.9773C36.9034 15.3125 36.9119 15.5739 36.9858 15.7614C37.0597 15.9432 37.1818 16.071 37.3523 16.1449C37.5284 16.2187 37.7386 16.2557 37.983 16.2557C38.1534 16.2557 38.3267 16.2415 38.5028 16.2131C38.679 16.179 38.8125 16.1534 38.9034 16.1364L39.0398 18.8381C38.8352 18.9006 38.5597 18.9687 38.2131 19.0426C37.8722 19.1165 37.4688 19.1619 37.0028 19.179C36.1165 19.2131 35.3665 19.0966 34.7528 18.8295C34.1392 18.5568 33.6989 18.1392 33.4318 17.5767C33.1648 17.0142 33.108 16.3068 33.2614 15.4545L35.358 2.77273ZM50.4474 13.4261L51.7003 5.90909H55.331L53.1491 19H49.6634L50.0554 16.6222H49.919C49.5156 17.3892 48.9276 18.0057 48.1548 18.4716C47.3821 18.9375 46.5043 19.1705 45.5213 19.1705C44.6463 19.1705 43.9077 18.9716 43.3054 18.5739C42.7088 18.1761 42.2855 17.6108 42.0355 16.8778C41.7855 16.1449 41.7429 15.267 41.9077 14.2443L43.3054 5.90909H46.9361L45.6577 13.5966C45.5384 14.3693 45.6463 14.9801 45.9815 15.429C46.3168 15.8778 46.8281 16.1023 47.5156 16.1023C47.9531 16.1023 48.3764 16.0028 48.7855 15.804C49.2003 15.5994 49.5582 15.2983 49.8594 14.9006C50.1605 14.5028 50.3565 14.0114 50.4474 13.4261ZM59.9652 15.233L60.6896 10.8778H61.218L66.255 5.90909H70.4226L63.7067 12.4886H62.8374L59.9652 15.233ZM56.0533 19L58.951 1.54545H62.5817L59.6839 19H56.0533ZM64.2351 19L61.3374 13.2983L64.1754 10.733L68.4879 19H64.2351ZM70.0902 19L72.9879 1.54545H79.9766C81.2607 1.54545 82.3004 1.7358 83.0959 2.11648C83.897 2.49716 84.4567 3.02557 84.7749 3.7017C85.093 4.37216 85.1783 5.14489 85.0305 6.01989C84.9112 6.7017 84.6697 7.2983 84.3061 7.80966C83.9482 8.32102 83.505 8.74148 82.9766 9.07102C82.4482 9.40057 81.8743 9.63352 81.255 9.76989L81.2209 9.94034C81.88 9.96875 82.4737 10.1562 83.0021 10.5028C83.5305 10.8437 83.9254 11.3267 84.1868 11.9517C84.4482 12.5767 84.5078 13.3182 84.3658 14.1761C84.2124 15.1023 83.8459 15.929 83.2663 16.6562C82.6868 17.3778 81.9141 17.9489 80.9482 18.3693C79.9879 18.7898 78.8544 19 77.5476 19H70.0902ZM74.2919 15.983H77.3004C78.3232 15.983 79.1044 15.7841 79.6442 15.3864C80.1839 14.9886 80.5078 14.4631 80.6158 13.8097C80.6896 13.3267 80.6413 12.9006 80.4709 12.5312C80.3061 12.1619 80.0249 11.8722 79.6271 11.6619C79.2351 11.4517 78.7379 11.3466 78.1357 11.3466H75.0504L74.2919 15.983ZM75.4766 8.84943H78.2124C78.7124 8.84943 79.1754 8.76136 79.6016 8.58523C80.0334 8.40341 80.3885 8.14773 80.6669 7.81818C80.951 7.48295 81.13 7.08807 81.2038 6.63352C81.3061 5.99716 81.1641 5.48864 80.7777 5.10795C80.397 4.72159 79.8004 4.52841 78.9879 4.52841H76.1925L75.4766 8.84943ZM95.2131 13.4261L96.4659 5.90909H100.097L97.9148 19H94.429L94.821 16.6222H94.6847C94.2813 17.3892 93.6932 18.0057 92.9205 18.4716C92.1477 18.9375 91.2699 19.1705 90.2869 19.1705C89.4119 19.1705 88.6733 18.9716 88.071 18.5739C87.4744 18.1761 87.0511 17.6108 86.8011 16.8778C86.5511 16.1449 86.5085 15.267 86.6733 14.2443L88.071 5.90909H91.7017L90.4233 13.5966C90.304 14.3693 90.4119 14.9801 90.7472 15.429C91.0824 15.8778 91.5938 16.1023 92.2812 16.1023C92.7188 16.1023 93.142 16.0028 93.5511 15.804C93.9659 15.5994 94.3239 15.2983 94.625 14.9006C94.9261 14.5028 95.1222 14.0114 95.2131 13.4261ZM100.844 19L103.026 5.90909H106.478L106.103 8.21875H106.248C106.646 7.4517 107.2 6.84659 107.91 6.40341C108.626 5.96023 109.43 5.73864 110.322 5.73864C111.208 5.73864 111.93 5.96307 112.487 6.41193C113.049 6.85511 113.373 7.45739 113.458 8.21875H113.594C113.981 7.46875 114.563 6.86932 115.342 6.42045C116.12 5.96591 116.989 5.73864 117.95 5.73864C119.16 5.73864 120.086 6.12784 120.728 6.90625C121.37 7.68466 121.572 8.78125 121.333 10.196L119.867 19H116.237L117.6 10.9119C117.708 10.179 117.6 9.63352 117.276 9.27557C116.952 8.91193 116.501 8.73011 115.921 8.73011C115.262 8.73011 114.714 8.94034 114.276 9.3608C113.839 9.77557 113.569 10.3239 113.467 11.0057L112.112 19H108.592L109.972 10.8352C110.069 10.1875 109.964 9.67614 109.657 9.30114C109.356 8.92045 108.904 8.73011 108.302 8.73011C107.904 8.73011 107.526 8.83239 107.168 9.03693C106.816 9.2358 106.518 9.51705 106.273 9.88068C106.029 10.2386 105.87 10.6591 105.796 11.142L104.467 19H100.844ZM122.71 19L124.891 5.90909H128.522L126.34 19H122.71ZM127.082 4.20454C126.542 4.20454 126.096 4.02557 125.744 3.66761C125.397 3.30398 125.255 2.87216 125.317 2.37216C125.38 1.8608 125.624 1.42898 126.05 1.0767C126.477 0.718749 126.96 0.539772 127.499 0.539772C128.039 0.539772 128.479 0.718749 128.82 1.0767C129.161 1.42898 129.303 1.8608 129.246 2.37216C129.19 2.87216 128.948 3.30398 128.522 3.66761C128.102 4.02557 127.621 4.20454 127.082 4.20454Z" fill="black"/>
</svg>
